<?xml version="1.0" encoding="utf-8"?>
<!-- Generator: Adobe Illustrator 22.1.0, SVG Export Plug-In . SVG Version: 6.00 Build 0)  -->
<svg version="1.1" xmlns="http://www.w3.org/2000/svg" xmlns:xlink="http://www.w3.org/1999/xlink" x="0px" y="0px"
	 viewBox="0 0 1164 600" style="enable-background:new 0 0 1164 600;" xml:space="preserve">
<style type="text/css">
	.st0{fill:#006F04;}
	.st1{font-family:'SegoeScript';}
	.st2{font-size:134px;}
	.st3{fill:#39B54A;stroke:#000000;stroke-miterlimit:10;}
	.st4{fill:#D9E021;stroke:#000000;stroke-width:0.25;stroke-miterlimit:10;}
	.st5{fill:#754C24;}
	.st6{stroke:#000000;stroke-miterlimit:10;}
	.st7{fill:#FFFFFF;stroke:#000000;stroke-miterlimit:10;}
	.st8{fill:#D4145A;}
	.st9{fill:none;stroke:#000000;stroke-miterlimit:10;}
</style>
<g id="Слой_4">
	<text transform="matrix(1 0 0 1 502.6667 257.1612)"><tspan x="0" y="0" class="st0 st1 st2">Твой </tspan><tspan x="0" y="160.8" class="st0 st1 st2">Авокадо</tspan></text>
</g>
<g id="Слой_3">
	<g>
		<g>
			<path class="st3" d="M389.6,313.5c-0.2-0.6-0.4-1.2-0.7-1.7c-0.2-0.6-0.4-1.2-0.7-1.7c-0.2-0.6-0.4-1.2-0.7-1.7
				c-0.2-0.6-0.4-1.2-0.7-1.7c-0.2-0.6-0.4-1.2-0.7-1.7c-0.2-0.6-0.4-1.2-0.7-1.7c-0.2-0.6-0.4-1.2-0.7-1.7
				c-0.2-0.6-0.4-1.2-0.7-1.7c-0.2-0.6-0.4-1.2-0.7-1.7c-0.2-0.6-0.4-1.2-0.7-1.7c-0.2-0.6-0.4-1.2-0.7-1.7
				c-0.2-0.6-0.4-1.2-0.7-1.7c-0.2-0.6-0.4-1.2-0.7-1.7c-0.2-0.6-0.4-1.2-0.7-1.7c-0.2-0.6-0.4-1.2-0.7-1.7
				c-0.2-0.6-0.4-1.2-0.7-1.7c-0.2-0.6-0.4-1.2-0.7-1.7c-0.2-0.6-0.4-1.2-0.7-1.7c-0.2-0.6-0.4-1.2-0.7-1.7
				c-0.2-0.6-0.4-1.2-0.7-1.7c-0.2-0.6-0.4-1.2-0.7-1.7c-0.2-0.6-0.4-1.2-0.7-1.7c-0.2-0.6-0.4-1.2-0.7-1.7
				c-0.2-0.6-0.4-1.2-0.7-1.7c-0.2-0.6-0.4-1.2-0.7-1.7c-0.2-0.6-0.4-1.2-0.7-1.7c-0.2-0.6-0.4-1.2-0.7-1.7
				c-0.2-0.6-0.4-1.2-0.7-1.7c-0.2-0.6-0.4-1.2-0.7-1.7c-0.2-0.6-0.4-1.2-0.7-1.7c-0.2-0.6-0.4-1.2-0.7-1.7
				c-0.2-0.6-0.4-1.2-0.7-1.7c-0.2-0.6-0.4-1.2-0.7-1.7c-0.2-0.6-0.4-1.2-0.7-1.7c-0.2-0.6-0.4-1.2-0.7-1.7
				c-0.2-0.6-0.4-1.2-0.7-1.7c-0.2-0.6-0.4-1.2-0.7-1.7c-0.2-0.6-0.4-1.2-0.7-1.7c-0.2-0.6-0.4-1.2-0.7-1.7
				c-0.2-0.6-0.4-1.2-0.7-1.7c-0.2-0.6-0.4-1.2-0.7-1.7c-0.2-0.6-0.4-1.2-0.7-1.7c-0.2-0.6-0.4-1.2-0.7-1.7
				c-0.2-0.6-0.4-1.2-0.7-1.7c-0.2-0.6-0.4-1.2-0.7-1.7c-0.2-0.6-0.4-1.2-0.7-1.7c-0.2-0.6-0.4-1.2-0.7-1.7
				c-0.2-0.6-0.4-1.2-0.7-1.7c-0.2-0.6-0.4-1.2-0.7-1.7c-0.2-0.6-0.4-1.2-0.7-1.7c-0.2-0.6-0.4-1.2-0.7-1.7
				c-0.2-0.6-0.4-1.2-0.7-1.7c-0.2-0.6-0.4-1.2-0.7-1.7c-0.2-0.6-0.4-1.2-0.7-1.7c-0.2-0.6-0.4-1.2-0.7-1.7
				c-0.2-0.6-0.4-1.2-0.7-1.7c-0.2-0.6-0.4-1.2-0.7-1.7c-0.2-0.6-0.4-1.2-0.7-1.7c-0.2-0.6-0.4-1.2-0.7-1.7
				c-0.2-0.6-0.4-1.2-0.7-1.7c-0.2-0.6-0.4-1.2-0.7-1.7c-0.2-0.6-0.4-1.2-0.7-1.7c-0.2-0.6-0.4-1.2-0.7-1.7
				c-0.2-0.6-0.4-1.2-0.7-1.7c-0.2-0.6-0.4-1.2-0.7-1.7c-0.2-0.6-0.4-1.2-0.7-1.7c-0.2-0.6-0.4-1.2-0.7-1.7
				c-0.2-0.6-0.4-1.2-0.7-1.7c-0.2-0.6-0.4-1.2-0.7-1.7c-0.2-0.6-0.4-1.2-0.7-1.7c-0.2-0.6-0.4-1.2-0.7-1.7
				c-0.2-0.6-0.4-1.2-0.7-1.7c-0.2-0.6-0.4-1.2-0.7-1.7c-0.2-0.6-0.4-1.2-0.7-1.7c-0.2-0.6-0.4-1.2-0.7-1.7
				c-0.2-0.6-0.4-1.2-0.7-1.7c-0.2-0.6-0.4-1.2-0.7-1.7c-0.2-0.6-0.4-1.2-0.7-1.7c-0.2-0.6-0.4-1.2-0.7-1.7
				c-0.2-0.6-0.4-1.2-0.7-1.7c-0.2-0.6-0.4-1.2-0.7-1.7c-0.2-0.6-0.4-1.2-0.7-1.7c-0.2-0.6-0.4-1.2-0.7-1.7
				c-0.2-0.6-0.4-1.2-0.7-1.7c-0.2-0.7-0.5-1.3-0.8-2c-0.1-0.3-0.2-0.5-0.3-0.8c-0.2-0.6-0.4-1.2-0.7-1.8c-0.2-0.6-0.4-1.2-0.7-1.8
				c-0.2-0.6-0.4-1.2-0.7-1.8c-0.2-0.6-0.4-1.2-0.7-1.8c-0.2-0.6-0.4-1.2-0.7-1.8c-0.2-0.6-0.4-1.2-0.7-1.8
				c-0.2-0.6-0.4-1.2-0.7-1.8c-0.2-0.6-0.4-1.2-0.7-1.8c-0.2-0.6-0.4-1.2-0.7-1.8c-0.2-0.6-0.4-1.2-0.7-1.8
				c-0.2-0.6-0.4-1.2-0.7-1.8c-0.2-0.6-0.4-1.2-0.7-1.8c-0.2-0.6-0.4-1.2-0.7-1.8c-0.2-0.6-0.4-1.2-0.7-1.8
				c-10.4-28.9-38.1-49.6-70.6-49.6c-31.5,0-58.4,19.4-69.5,46.9c-0.2,0.6-0.5,1.1-0.7,1.7c-0.2,0.6-0.5,1.1-0.7,1.7
				c-0.2,0.6-0.5,1.1-0.7,1.7c-0.2,0.6-0.5,1.1-0.7,1.7c-0.2,0.6-0.5,1.1-0.7,1.7c-0.2,0.6-0.5,1.1-0.7,1.7
				c-0.2,0.6-0.5,1.1-0.7,1.7c-0.2,0.6-0.5,1.1-0.7,1.7c-0.2,0.6-0.5,1.1-0.7,1.7c-0.2,0.6-0.5,1.1-0.7,1.7
				c-0.2,0.6-0.5,1.1-0.7,1.7c-0.2,0.6-0.5,1.1-0.7,1.7c-0.2,0.6-0.5,1.1-0.7,1.7c-0.2,0.6-0.5,1.1-0.7,1.7c-0.2,0.5-0.4,1-0.6,1.5
				c-0.3,0.7-0.6,1.4-0.9,2.2c-0.2,0.6-0.5,1.1-0.7,1.7c-0.2,0.6-0.5,1.1-0.7,1.7c-0.2,0.6-0.5,1.1-0.7,1.7
				c-0.2,0.6-0.5,1.1-0.7,1.7c-0.2,0.6-0.5,1.1-0.7,1.7c-0.2,0.6-0.5,1.1-0.7,1.7c-0.2,0.6-0.5,1.1-0.7,1.7
				c-0.2,0.6-0.5,1.1-0.7,1.7c-0.2,0.6-0.5,1.1-0.7,1.7c-0.2,0.6-0.5,1.1-0.7,1.7c-0.2,0.6-0.5,1.1-0.7,1.7
				c-0.2,0.6-0.5,1.1-0.7,1.7c-0.2,0.6-0.5,1.1-0.7,1.7c-0.2,0.6-0.5,1.1-0.7,1.7c-0.2,0.6-0.5,1.1-0.7,1.7
				c-0.2,0.6-0.5,1.1-0.7,1.7c-0.2,0.6-0.5,1.1-0.7,1.7c-0.2,0.6-0.5,1.1-0.7,1.7c-0.2,0.6-0.5,1.1-0.7,1.7
				c-0.2,0.6-0.5,1.1-0.7,1.7c-0.2,0.6-0.5,1.1-0.7,1.7c-0.2,0.6-0.5,1.1-0.7,1.7c-0.2,0.6-0.5,1.1-0.7,1.7
				c-0.2,0.6-0.5,1.1-0.7,1.7c-0.2,0.6-0.5,1.1-0.7,1.7c-0.2,0.6-0.5,1.1-0.7,1.7c-0.2,0.6-0.5,1.1-0.7,1.7
				c-0.2,0.6-0.5,1.1-0.7,1.7c-0.2,0.6-0.5,1.1-0.7,1.7c-0.2,0.6-0.5,1.1-0.7,1.7c-0.2,0.6-0.5,1.1-0.7,1.7
				c-0.2,0.6-0.5,1.1-0.7,1.7c-0.2,0.6-0.5,1.1-0.7,1.7c-0.2,0.6-0.5,1.1-0.7,1.7c-0.2,0.6-0.5,1.1-0.7,1.7
				c-0.2,0.6-0.5,1.1-0.7,1.7c-0.2,0.6-0.5,1.1-0.7,1.7c-0.2,0.6-0.5,1.1-0.7,1.7c-0.2,0.6-0.5,1.1-0.7,1.7
				c-0.2,0.6-0.5,1.1-0.7,1.7c-0.2,0.6-0.5,1.1-0.7,1.7c-0.2,0.6-0.5,1.1-0.7,1.7c-0.2,0.6-0.5,1.1-0.7,1.7
				c-0.2,0.6-0.5,1.1-0.7,1.7c-0.2,0.6-0.5,1.1-0.7,1.7c-0.2,0.6-0.5,1.1-0.7,1.7c-0.2,0.6-0.5,1.1-0.7,1.7
				c-0.2,0.6-0.5,1.1-0.7,1.7c-0.2,0.6-0.5,1.1-0.7,1.7c-0.2,0.6-0.5,1.1-0.7,1.7c-0.2,0.6-0.5,1.1-0.7,1.7
				c-0.2,0.6-0.5,1.1-0.7,1.7c-0.2,0.6-0.5,1.1-0.7,1.7c-0.2,0.6-0.5,1.1-0.7,1.7c-0.2,0.6-0.5,1.1-0.7,1.7
				c-0.2,0.6-0.5,1.1-0.7,1.7c-0.2,0.6-0.5,1.1-0.7,1.7c-0.2,0.6-0.5,1.1-0.7,1.7c-0.2,0.6-0.5,1.1-0.7,1.7
				c-0.2,0.6-0.5,1.1-0.7,1.7c-0.2,0.6-0.5,1.1-0.7,1.7c-0.2,0.6-0.5,1.1-0.7,1.7c-0.2,0.6-0.5,1.1-0.7,1.7
				c-0.2,0.6-0.5,1.1-0.7,1.7c-0.2,0.6-0.5,1.1-0.7,1.7c-0.2,0.6-0.5,1.1-0.7,1.7c-0.2,0.6-0.5,1.1-0.7,1.7
				c-0.2,0.6-0.5,1.1-0.7,1.7c-0.2,0.6-0.5,1.1-0.7,1.7c-0.2,0.6-0.5,1.1-0.7,1.7c-0.2,0.6-0.5,1.1-0.7,1.7
				c-0.2,0.6-0.5,1.1-0.7,1.7c-0.2,0.6-0.5,1.1-0.7,1.7c-0.2,0.6-0.5,1.1-0.7,1.7c-0.2,0.6-0.5,1.1-0.7,1.7
				c-0.2,0.6-0.5,1.1-0.7,1.7c-0.2,0.6-0.5,1.1-0.7,1.7c-0.2,0.6-0.5,1.1-0.7,1.7c-0.2,0.6-0.5,1.1-0.7,1.7
				c-0.2,0.6-0.5,1.1-0.7,1.7c-0.2,0.6-0.5,1.1-0.7,1.7c-0.2,0.6-0.5,1.1-0.7,1.7c-0.2,0.6-0.5,1.1-0.7,1.7
				c-0.2,0.6-0.5,1.1-0.7,1.7c-7.7,18-12,37.9-12,58.8c0,82.8,67.2,150,150,150s150-67.2,150-150C400,349.1,396.3,330.5,389.6,313.5
				z"/>
		</g>
	</g>
</g>
<g id="Слой_1">
	<g>
		<g>
			<path class="st4" d="M371.2,319.5c-0.2-0.5-0.4-1.1-0.6-1.6c-0.2-0.5-0.4-1.1-0.6-1.6c-0.2-0.5-0.4-1.1-0.6-1.6
				c-0.2-0.5-0.4-1.1-0.6-1.6c-0.2-0.5-0.4-1.1-0.6-1.6c-0.2-0.5-0.4-1.1-0.6-1.6c-0.2-0.5-0.4-1.1-0.6-1.6
				c-0.2-0.5-0.4-1.1-0.6-1.6c-0.2-0.5-0.4-1.1-0.6-1.6c-0.2-0.5-0.4-1.1-0.6-1.6c-0.2-0.5-0.4-1.1-0.6-1.6
				c-0.2-0.5-0.4-1.1-0.6-1.6c-0.2-0.5-0.4-1.1-0.6-1.6c-0.2-0.5-0.4-1.1-0.6-1.6c-0.2-0.5-0.4-1.1-0.6-1.6
				c-0.2-0.5-0.4-1.1-0.6-1.6c-0.2-0.5-0.4-1.1-0.6-1.6c-0.2-0.5-0.4-1.1-0.6-1.6c-0.2-0.5-0.4-1.1-0.6-1.6
				c-0.2-0.5-0.4-1.1-0.6-1.6c-0.2-0.5-0.4-1.1-0.6-1.6c-0.2-0.5-0.4-1.1-0.6-1.6c-0.2-0.5-0.4-1.1-0.6-1.6
				c-0.2-0.5-0.4-1.1-0.6-1.6c-0.2-0.5-0.4-1.1-0.6-1.6c-0.2-0.5-0.4-1.1-0.6-1.6c-0.2-0.5-0.4-1.1-0.6-1.6
				c-0.2-0.5-0.4-1.1-0.6-1.6c-0.2-0.5-0.4-1.1-0.6-1.6c-0.2-0.5-0.4-1.1-0.6-1.6c-0.2-0.5-0.4-1.1-0.6-1.6
				c-0.2-0.5-0.4-1.1-0.6-1.6c-0.2-0.5-0.4-1.1-0.6-1.6c-0.2-0.5-0.4-1.1-0.6-1.6c-0.2-0.5-0.4-1.1-0.6-1.6
				c-0.2-0.5-0.4-1.1-0.6-1.6c-0.2-0.5-0.4-1.1-0.6-1.6c-0.2-0.5-0.4-1.1-0.6-1.6c-0.2-0.5-0.4-1.1-0.6-1.6
				c-0.2-0.5-0.4-1.1-0.6-1.6c-0.2-0.5-0.4-1.1-0.6-1.6c-0.2-0.5-0.4-1.1-0.6-1.6c-0.2-0.5-0.4-1.1-0.6-1.6
				c-0.2-0.5-0.4-1.1-0.6-1.6c-0.2-0.5-0.4-1.1-0.6-1.6c-0.2-0.5-0.4-1.1-0.6-1.6c-0.2-0.5-0.4-1.1-0.6-1.6
				c-0.2-0.5-0.4-1.1-0.6-1.6c-0.2-0.5-0.4-1.1-0.6-1.6c-0.2-0.5-0.4-1.1-0.6-1.6c-0.2-0.5-0.4-1.1-0.6-1.6
				c-0.2-0.5-0.4-1.1-0.6-1.6c-0.2-0.5-0.4-1.1-0.6-1.6c-0.2-0.5-0.4-1.1-0.6-1.6c-0.2-0.5-0.4-1.1-0.6-1.6
				c-0.2-0.5-0.4-1.1-0.6-1.6c-0.2-0.5-0.4-1.1-0.6-1.6c-0.2-0.5-0.4-1.1-0.6-1.6c-0.2-0.5-0.4-1.1-0.6-1.6
				c-0.2-0.5-0.4-1.1-0.6-1.6c-0.2-0.5-0.4-1.1-0.6-1.6c-0.2-0.5-0.4-1.1-0.6-1.6c-0.2-0.5-0.4-1.1-0.6-1.6
				c-0.2-0.5-0.4-1.1-0.6-1.6c-0.2-0.5-0.4-1.1-0.6-1.6c-0.2-0.5-0.4-1.1-0.6-1.6c-0.2-0.5-0.4-1.1-0.6-1.6
				c-0.2-0.5-0.4-1.1-0.6-1.6c-0.2-0.5-0.4-1.1-0.6-1.6c-0.2-0.5-0.4-1.1-0.6-1.6c-0.2-0.5-0.4-1.1-0.6-1.6
				c-0.2-0.5-0.4-1.1-0.6-1.6c0-0.1-0.1-0.2-0.1-0.3c0-0.1-0.1-0.2-0.1-0.4c-0.1-0.2-0.1-0.4-0.2-0.5c-0.2-0.5-0.4-1.1-0.6-1.6
				c-0.2-0.5-0.4-1.1-0.6-1.6c-0.2-0.5-0.4-1.1-0.6-1.6c-0.2-0.5-0.4-1.1-0.6-1.6c-0.2-0.5-0.4-1.1-0.6-1.6
				c-0.2-0.5-0.4-1.1-0.6-1.6c-0.2-0.5-0.4-1.1-0.6-1.6c-0.2-0.5-0.4-1.1-0.6-1.6c-0.2-0.5-0.4-1.1-0.6-1.6
				c-0.2-0.5-0.4-1.1-0.6-1.6c-0.2-0.5-0.4-1.1-0.6-1.6c-0.2-0.5-0.4-1.1-0.6-1.6c-0.2-0.5-0.4-1.1-0.6-1.6
				c-0.2-0.5-0.4-1.1-0.6-1.6c-0.2-0.5-0.4-1.1-0.6-1.6c-0.2-0.5-0.4-1.1-0.6-1.6c-0.2-0.5-0.4-1.1-0.6-1.6
				c-0.2-0.5-0.4-1.1-0.6-1.6c-0.2-0.5-0.4-1.1-0.6-1.6c-0.2-0.5-0.4-1.1-0.6-1.6c-0.2-0.5-0.4-1.1-0.6-1.6
				c-0.2-0.5-0.4-1.1-0.6-1.6c-0.2-0.5-0.4-1.1-0.6-1.6c-0.2-0.5-0.4-1.1-0.6-1.6c-0.2-0.5-0.4-1.1-0.6-1.6
				c-0.2-0.5-0.4-1.1-0.6-1.6c-0.2-0.5-0.4-1.1-0.6-1.6c-9-26.1-32.9-44.8-61-44.8c-27.2,0-50.4,17.5-60,42.2
				c-0.2,0.5-0.4,1-0.6,1.5c-0.2,0.5-0.4,1-0.6,1.5c-0.2,0.5-0.4,1-0.6,1.5c-0.2,0.5-0.4,1-0.6,1.5c-0.2,0.5-0.4,1-0.6,1.6
				c-0.2,0.5-0.4,1-0.6,1.6c-0.2,0.5-0.4,1-0.6,1.5c-0.2,0.5-0.4,1-0.6,1.5c-0.2,0.5-0.4,1-0.6,1.6c-0.2,0.5-0.4,1-0.6,1.5
				c-0.2,0.5-0.4,1-0.6,1.5c-0.2,0.5-0.4,1-0.6,1.5c-0.2,0.5-0.4,1-0.6,1.6c-0.2,0.5-0.4,1-0.6,1.6c-0.2,0.5-0.4,1-0.6,1.5
				c-0.2,0.5-0.4,1-0.6,1.6c-0.2,0.5-0.4,1-0.6,1.6c-0.2,0.5-0.4,1-0.6,1.5c-0.2,0.5-0.4,1-0.6,1.6c-0.2,0.5-0.4,1-0.6,1.5
				c-0.2,0.5-0.4,1-0.6,1.5c-0.2,0.5-0.4,1-0.6,1.5c-0.2,0.5-0.4,1-0.6,1.5c-0.2,0.5-0.4,1-0.6,1.5c-0.2,0.5-0.4,1-0.6,1.6
				c-0.2,0.5-0.4,1-0.6,1.5c-0.2,0.5-0.4,1-0.6,1.6c-0.2,0.4-0.4,0.9-0.5,1.3c-0.3,0.6-0.5,1.3-0.8,1.9c-0.2,0.5-0.4,1-0.6,1.5
				c-0.2,0.5-0.4,1-0.6,1.5c-0.2,0.5-0.4,1-0.6,1.6c-0.2,0.5-0.4,1-0.6,1.5c-0.2,0.5-0.4,1-0.6,1.5c-0.2,0.5-0.4,1-0.6,1.6
				c-0.2,0.5-0.4,1-0.6,1.5c-0.2,0.5-0.4,1-0.6,1.6c-0.2,0.5-0.4,1-0.6,1.5c-0.2,0.5-0.4,1-0.6,1.6c-0.2,0.5-0.4,1-0.6,1.5
				c-0.2,0.5-0.4,1-0.6,1.6c-0.2,0.5-0.4,1-0.6,1.5c-0.2,0.5-0.4,1-0.6,1.6c-0.2,0.5-0.4,1-0.6,1.5c-0.2,0.5-0.4,1-0.6,1.5
				c-0.2,0.5-0.4,1-0.6,1.6c-0.2,0.5-0.4,1-0.6,1.6c-0.2,0.5-0.4,1-0.6,1.5c-0.2,0.5-0.4,1-0.6,1.5c-0.2,0.5-0.4,1-0.6,1.5
				c-0.2,0.5-0.4,1-0.6,1.6c-0.2,0.5-0.4,1-0.6,1.5c-0.2,0.5-0.4,1-0.6,1.6c-0.2,0.5-0.4,1-0.6,1.6c-0.2,0.5-0.4,1-0.6,1.5
				c-0.2,0.5-0.4,1-0.6,1.6c-0.2,0.5-0.4,1-0.6,1.5c-0.2,0.5-0.4,1-0.6,1.6c-0.2,0.5-0.4,1-0.6,1.5c-0.2,0.5-0.4,1-0.6,1.5
				c-0.2,0.5-0.4,1-0.6,1.5c-0.2,0.5-0.4,1-0.6,1.5c-0.2,0.5-0.4,1-0.6,1.5c-0.2,0.5-0.4,1-0.6,1.5c-0.2,0.5-0.4,1-0.6,1.6
				c-0.2,0.5-0.4,1-0.6,1.5c-0.2,0.5-0.4,1-0.6,1.6c-0.2,0.5-0.4,1-0.6,1.5c-0.2,0.5-0.4,1-0.6,1.6c-0.2,0.5-0.4,1-0.6,1.5
				c-0.2,0.5-0.4,1-0.6,1.5c-0.2,0.5-0.4,1-0.6,1.5c-0.2,0.5-0.4,1-0.6,1.5c-0.2,0.5-0.4,1-0.6,1.5c-0.2,0.5-0.4,1-0.6,1.6
				c-0.2,0.5-0.4,1-0.6,1.5c-0.2,0.5-0.4,1-0.6,1.6c-0.2,0.5-0.4,1-0.6,1.5c-0.2,0.5-0.4,1-0.6,1.5c-0.2,0.5-0.4,1-0.6,1.6
				c-0.2,0.5-0.4,1-0.6,1.6c-0.2,0.5-0.4,1-0.6,1.5c-0.2,0.5-0.4,1-0.6,1.5c-0.2,0.5-0.4,1-0.6,1.5c-0.2,0.5-0.4,1-0.6,1.5
				c-0.2,0.5-0.4,1-0.6,1.5c-0.2,0.5-0.4,1-0.6,1.6c-0.2,0.5-0.4,1-0.6,1.6c-0.2,0.5-0.4,1-0.6,1.5c-0.2,0.5-0.4,1-0.6,1.5
				c-0.2,0.5-0.4,1-0.6,1.5c-0.2,0.5-0.4,1-0.6,1.6c-0.2,0.5-0.4,1-0.6,1.5c-0.2,0.5-0.4,1-0.6,1.6c-0.2,0.5-0.4,1-0.6,1.5
				c-0.2,0.5-0.4,1-0.6,1.5c-0.2,0.5-0.4,1-0.6,1.5c-0.2,0.5-0.4,1-0.6,1.5c-0.2,0.5-0.4,1-0.6,1.6c-0.2,0.5-0.4,1-0.6,1.6
				c-6.7,16.3-10.4,34.3-10.4,53.1c0,74.6,58,135.2,129.6,135.2s129.6-60.5,129.6-135.2C379.6,350.5,376.6,334.4,371.2,319.5z"/>
		</g>
	</g>
	<circle class="st5" cx="251.3" cy="384.3" r="75"/>
	<g id="Слой_2">
		<path class="st6" d="M233.5,359.7c0.4,6.3-5.1,11.7-12.1,12.1c-6.7,0.4-12.1-5.4-12.1-12.1s5.4-12.1,12.1-12.1
			S233.1,353,233.5,359.7z"/>
		<circle class="st6" cx="289.7" cy="359.7" r="12.1"/>
		<path class="st7" d="M210,354.3"/>
		<path class="st7" d="M294.5,350.3"/>
		<g>
			<g>
				<path d="M792.4,389.1c1,0,3.1-1.5,1.2-1.5C792.5,387.6,790.5,389.1,792.4,389.1L792.4,389.1z"/>
			</g>
		</g>
		<circle class="st8" cx="197.6" cy="384.8" r="6.3"/>
		<circle class="st8" cx="307.3" cy="384.3" r="5.4"/>
		<ellipse class="st9" cx="252.8" cy="405.6" rx="14" ry="11.3"/>
		<rect x="233.5" y="384.3" class="st5" width="44.7" height="21.3"/>
	</g>
</g>
</svg>
